<svg width="1024" height="1024" viewBox="0 0 1024 1024" xmlns="http://www.w3.org/2000/svg">
  <g fill="none" fill-rule="evenodd" stroke="none" stroke-width="1">
    <!-- Document outline -->
    <path d="M306 240C306 213.49 327.49 192 354 192H580C596.974 192 613.253 198.737 625.255 210.745L726.255 311.745C738.263 323.747 745 340.026 745 357V742C745 768.51 723.51 790 697 790H354C327.49 790 306 768.51 306 742V240Z"
          stroke="#F6F8FB" stroke-width="28" stroke-linejoin="round"/>

    <!-- Folded corner line -->
    <path d="M584 193V288C584 314.51 605.49 336 632 336H727"
          stroke="#F6F8FB" stroke-width="28" stroke-linecap="round" stroke-linejoin="round"/>

    <!-- Check mark -->
    <path d="M364 532L492 646L754 438"
          stroke="#14B8C5" stroke-width="42" stroke-linecap="round" stroke-linejoin="round"/>

    <!-- AI circuit motif -->
    <path d="M514 708C553 708 568 666 605 666C639 666 649 698 680 698C706 698 722 680 736 662"
          stroke="#D8E3EA" stroke-width="16" stroke-linecap="round" stroke-linejoin="round"/>
    <path d="M492 736H596"
          stroke="#D8E3EA" stroke-width="12" stroke-linecap="round"/>
    <path d="M686 698H754"
          stroke="#D8E3EA" stroke-width="12" stroke-linecap="round"/>
    <path d="M710 746H760"
          stroke="#D8E3EA" stroke-width="12" stroke-linecap="round"/>

    <!-- Circuit nodes -->
    <circle cx="607" cy="630" r="16" fill="#14B8C5"/>
    <circle cx="584" cy="736" r="12" fill="#14B8C5"/>
    <circle cx="694" cy="672" r="18" fill="#F6F8FB"/>
    <circle cx="758" cy="698" r="16" fill="#F6F8FB"/>
    <circle cx="760" cy="746" r="14" fill="#F6F8FB"/>
  </g>
</svg>
