<svg width="2048" height="2048" viewBox="0 0 2048 2048" fill="none" xmlns="http://www.w3.org/2000/svg">
  <defs>
    <linearGradient id="checkGrad" x1="717" y1="1102" x2="1322" y2="878" gradientUnits="userSpaceOnUse">
      <stop offset="0" stop-color="#14B8C5"/>
      <stop offset="1" stop-color="#63E6E2"/>
    </linearGradient>
  </defs>
  <g transform="translate(0 8)">
    <path d="M722 630C722 592.445 752.445 562 790 562H1166C1190.04 562 1213.09 571.551 1230.08 588.544L1398.46 756.917C1415.45 773.911 1425 796.96 1425 821V1227C1425 1264.56 1394.56 1295 1357 1295H790C752.445 1295 722 1264.56 722 1227V630Z" stroke="#F7FAFC" stroke-width="42" stroke-linejoin="round"/>
    <path d="M1171 565V720C1171 757.555 1201.45 788 1239 788H1393" stroke="#F7FAFC" stroke-width="42" stroke-linecap="round" stroke-linejoin="round"/>
    <path d="M799 1064L1003 1246L1336 912L1304 901L999 1077L832 988L799 1064Z" fill="url(#checkGrad)"/>
    <path d="M1000 1077L1003 1246L832 988L1000 1077Z" fill="#11AFC0" fill-opacity="0.9"/>
    <path d="M1015 1315C1072 1315 1088 1257 1134 1257C1176 1257 1184 1302 1226 1302C1267 1302 1287 1267 1316 1227" stroke="#F7FAFC" stroke-width="22" stroke-linecap="round"/>
    <path d="M977 1343H1107" stroke="#F7FAFC" stroke-width="16" stroke-linecap="round" opacity="0.82"/>
    <path d="M1235 1302H1334" stroke="#F7FAFC" stroke-width="16" stroke-linecap="round" opacity="0.95"/>
    <path d="M1274 1369H1344" stroke="#F7FAFC" stroke-width="16" stroke-linecap="round" opacity="0.95"/>
    <circle cx="1148" cy="1190" r="28" fill="#63E6E2"/>
    <circle cx="1106" cy="1328" r="20" fill="#63E6E2"/>
    <circle cx="1246" cy="1268" r="32" fill="#F7FAFC"/>
    <circle cx="1338" cy="1302" r="25" fill="#F7FAFC"/>
    <circle cx="1338" cy="1369" r="22" fill="#F7FAFC"/>
  </g>
</svg>
